<svg class="main-svg" xmlns="http://www.w3.org/2000/svg" xmlns:xlink="http://www.w3.org/1999/xlink" width="1200" height="800" style="" viewBox="0 0 1200 800"><rect x="0" y="0" width="1200" height="800" style="fill: rgb(255, 255, 255); fill-opacity: 1;"/><defs id="defs-64446d"><g class="clips"><clipPath id="clip64446dxyplot" class="plotclip"><rect width="643" height="620"/></clipPath><clipPath class="axesclip" id="clip64446dx"><rect x="102" y="0" width="643" height="800"/></clipPath><clipPath class="axesclip" id="clip64446dy"><rect x="0" y="100" width="1200" height="620"/></clipPath><clipPath class="axesclip" id="clip64446dxy"><rect x="102" y="100" width="643" height="620"/></clipPath></g><g class="gradients"/><g class="patterns"/></defs><g class="bglayer"/><g class="layer-below"><g class="imagelayer"/><g class="shapelayer"/></g><g class="cartesianlayer"><g class="subplot xy"><g class="layer-subplot"><g class="shapelayer"/><g class="imagelayer"/></g><g class="gridlayer"><g class="x"><path class="xgrid crisp" transform="translate(230.6,0)" d="M0,100v620" style="stroke: rgb(232, 232, 232); stroke-opacity: 1; stroke-width: 1px;"/><path class="xgrid crisp" transform="translate(487.8,0)" d="M0,100v620" style="stroke: rgb(232, 232, 232); stroke-opacity: 1; stroke-width: 1px;"/></g><g class="y"><path class="ygrid crisp" transform="translate(0,616.67)" d="M102,0h643" style="stroke: rgb(232, 232, 232); stroke-opacity: 1; stroke-width: 1px;"/><path class="ygrid crisp" transform="translate(0,513.3299999999999)" d="M102,0h643" style="stroke: rgb(232, 232, 232); stroke-opacity: 1; stroke-width: 1px;"/><path class="ygrid crisp" transform="translate(0,410)" d="M102,0h643" style="stroke: rgb(232, 232, 232); stroke-opacity: 1; stroke-width: 1px;"/><path class="ygrid crisp" transform="translate(0,306.66999999999996)" d="M102,0h643" style="stroke: rgb(232, 232, 232); stroke-opacity: 1; stroke-width: 1px;"/><path class="ygrid crisp" transform="translate(0,203.32999999999998)" d="M102,0h643" style="stroke: rgb(232, 232, 232); stroke-opacity: 1; stroke-width: 1px;"/></g></g><g class="zerolinelayer"/><path class="xlines-below"/><path class="ylines-below"/><g class="overlines-below"/><g class="xaxislayer-below"/><g class="yaxislayer-below"/><g class="overaxes-below"/><g class="plot" transform="translate(102,100)" clip-path="url(#clip64446dxyplot)"><g class="scatterlayer mlayer"><g class="trace scatter trace219e0e" style="stroke-miterlimit: 2; opacity: 1;"><g class="fills"/><g class="errorbars"/><g class="lines"><path class="js-line" d="M-12860,1905.63L-12860,0L-12859.999999999069,1783.2947108527292L-168.44,1783.04L-153.53,1564.78L-13.59,1564.78L-9.67,1419.26L-2.22,1419.26L1.32,1243.37L4.76,1243.37L8.1,872.55L11.33,872.55L14.48,682.04L31.7,682.04L34.33,546.32L46.62,546.32L48.92,395.35L76.99,395.35L78.75,262.94L164.58,262.94L165.38,169.92L197.92,169.92L198.52,123.94L235.76,123.94L236.19,98.58L329.85,98.58L330.04,87.87L417.82,87.32" style="vector-effect: non-scaling-stroke; fill: none; stroke: rgb(31, 119, 180); stroke-opacity: 1; stroke-width: 2px; opacity: 1;"/></g><g class="points"/><g class="text"/></g><g class="trace scatter traceb30745" style="stroke-miterlimit: 2; opacity: 1;"><g class="fills"/><g class="errorbars"/><g class="lines"><path class="js-line" d="M-12860,1905.63L-12860,0L-12859.999999999069,1783.2947108527292L-168.44,1783.04L-153.53,1564.74L-13.59,1564.74L-9.67,1419.2L-2.22,1419.2L1.32,1243.31L4.76,1243.31L8.1,872.38L11.33,872.38L14.48,671.56L31.7,671.56L34.33,535.6L46.62,535.6L48.92,384.03L76.99,384.03L78.75,250.93L164.58,250.93L165.38,155.85L197.92,155.85L198.52,106.45L246.76,106.45L247.14,74.21L369.34,74.21L369.47,54.5L441.26,54.5L441.33,53.11L450.77,53.11" style="vector-effect: non-scaling-stroke; fill: none; stroke: rgb(255, 127, 14); stroke-opacity: 1; stroke-width: 2px; opacity: 1;"/></g><g class="points"/><g class="text"/></g><g class="trace scatter trace9ee0bb" style="stroke-miterlimit: 2; opacity: 1;"><g class="fills"/><g class="errorbars"/><g class="lines"><path class="js-line" d="M-12860,1908.86L-12860,0L-12859.999999999069,1792.2328261469816L-168.44,1791.99L-153.53,1567.53L-13.59,1567.53L-9.67,1243.39L-2.22,1243.39L1.32,866.9L11.33,866.9L14.48,666.64L23.42,666.64L26.25,529.62L46.62,529.62L48.92,376.65L55.56,376.65L57.68,237.25L164.58,237.25L165.38,148.76L194.87,148.76L195.49,105.57L229.6,105.57L230.05,78.06L342.39,78.06L342.56,62.02L423.06,62.02L423.14,40.2L1052.59,40.16L1052.59,40.16" style="vector-effect: non-scaling-stroke; fill: none; stroke: rgb(44, 160, 44); stroke-opacity: 1; stroke-width: 2px; opacity: 1;"/></g><g class="points"/><g class="text"/></g><g class="trace scatter trace2f33ba" style="stroke-miterlimit: 2; opacity: 1;"><g class="fills"/><g class="errorbars"/><g class="lines"><path class="js-line" d="M-12860,1890.34L-12860,0L-12859.999999999069,1764.801380416619L-168.44,1764.54L-153.53,1550.27L-13.59,1550.27L-9.67,1217.54L-2.22,1217.54L1.32,826.36L11.33,826.36L14.48,654.78L23.42,654.78L26.25,523.92L36.9,523.92L39.41,370.72L46.62,370.72L48.92,236.86L149.89,236.86L150.81,153.2L179.69,153.2L180.4,116.6L219.68,116.6L220.17,95.15L272.92,95.15L273.22,87.07L362.12,87.07L362.26,82.27L558.52,82.27L558.54,77.81L789.27,77.81" style="vector-effect: non-scaling-stroke; fill: none; stroke: rgb(214, 39, 40); stroke-opacity: 1; stroke-width: 2px; opacity: 1;"/></g><g class="points"/><g class="text"/></g><g class="trace scatter trace041ec2" style="stroke-miterlimit: 2; opacity: 1;"><g class="fills"/><g class="errorbars"/><g class="lines"><path class="js-line" d="M97.95,484.36L99.41,392.19L100.85,392.19L103.67,392.19L105.06,363.28L106.43,339.37L107.79,339.37L111.75,339.37L113.04,321.2L121.69,321.2L122.87,305.97L124.04,276.73L125.2,276.73L129.71,276.73L130.81,265.48L132.98,265.48L134.05,246.06L136.16,246.06L137.2,238.31L139.25,217.17L140.26,217.17L141.26,217.17L142.25,210.72L145.18,210.72L146.14,205.05L148.03,201.09L148.97,189.24L245.98,189.24L246.37,186.89L247.53,185.24L247.91,185.24L248.3,185.24L248.68,183.75L249.06,183.75L249.44,182.53L252.06,182.53L252.43,181.21L258.87,181.21L259.22,179.94L283.45,179.94L283.73,178.68L286.75,178.68L287.02,177.73L288.1,177.73L288.37,176.72L292.05,176.72L292.3,175.75L295.11,175.75L295.36,174.7L300.27,174.7L300.51,173.35L300.99,173.35L301.23,172.13L302.65,167.36L302.88,167.36L307.93,167.36L308.15,166.33L308.82,166.33L309.04,165.06L310.15,165.06L310.37,163.99L310.59,163.99L310.81,161.96L323.6,161.96L323.79,161.06L330.95,161.06L331.13,160.08L356.61,159.36L356.75,158.41L360.46,158.41L360.6,157.21L363.63,157.21L363.77,156.07L365.79,156.07L365.92,154.59L372.66,154.59L372.78,153.66L388.34,153.66L388.45,152.58L396.65,152.58L396.75,151.42L404.85,151.42L404.95,149.69L406.35,149.69L406.44,148.35L407.55,148.35L407.64,146.9L411.17,146.9L411.26,145.58L419.32,145.58L419.4,143.61L430.42,143.61L430.49,141.9L432.35,141.9L432.42,139.56L443.42,139.56L443.48,137.27L449.14,137.27L449.2,134.58L470.31,134.58L470.36,131.98L485.89,131.98L485.94,128.65L493.77,128.65L493.81,124.56L510.84,124.56L510.87,119.68L530.48,119.68L530.51,113.09L574.63,113.09L574.65,103.66L640.8,103.66L640.81,87.03L810.18,87.03L810.18,87.03L810.18,71.84L979.93,71.84L979.93,71.84" style="vector-effect: non-scaling-stroke; fill: none; stroke: rgb(148, 103, 189); stroke-opacity: 1; stroke-width: 2px; opacity: 1;"/></g><g class="points"/><g class="text"/></g><g class="trace scatter trace3b6074" style="stroke-miterlimit: 2; opacity: 1;"><g class="fills"/><g class="errorbars"/><g class="lines"><path class="js-line" d="M-12860,1890.98L-12860,0L-12859.999999999069,1765.690860980179L-168.44,1765.43L-153.53,1551.98L-13.59,1551.98L-9.67,1221.09L-2.22,1221.09L1.32,831.3L11.33,831.3L14.48,662.35L23.42,662.35L26.25,534.63L36.9,534.63L39.41,385.54L46.62,385.54L48.92,257.05L148.97,257.05L149.89,180.73L173.89,180.73L174.63,150.52L212.53,150.52L213.06,136.05L262.3,136.05L262.64,133.59L438.65,133.49" style="vector-effect: non-scaling-stroke; fill: none; stroke: rgb(140, 86, 75); stroke-opacity: 1; stroke-width: 2px; opacity: 1;"/></g><g class="points"/><g class="text"/></g><g class="trace scatter traceff9eb4" style="stroke-miterlimit: 2; opacity: 1;"><g class="fills"/><g class="errorbars"/><g class="lines"><path class="js-line" d="M97.95,484.43L99.41,392.25L100.85,392.25L103.67,392.25L105.06,363.34L106.43,339.43L107.79,339.43L111.75,339.43L113.04,321.26L121.69,321.26L122.87,306.03L124.04,276.79L125.2,276.79L129.71,276.79L130.81,265.55L132.98,265.55L134.05,246.12L136.16,246.12L137.2,238.37L139.25,217.23L140.26,217.23L141.26,217.23L142.25,210.8L145.18,210.8L146.14,205.14L148.03,201.17L148.97,189.72L245.98,189.72L246.37,187.3L247.53,185.63L247.91,185.63L248.3,185.63L248.68,184.1L249.06,184.1L249.44,182.84L252.06,182.84L252.43,181.49L258.87,181.49L259.22,180.23L283.45,180.23L283.73,179.04L286.75,179.04L287.02,178L288.1,178L288.37,176.91L292.05,176.91L292.3,175.91L295.11,175.91L295.36,174.86L300.27,174.86L300.51,173.54L300.99,173.54L301.23,172.32L302.65,167.63L302.88,167.63L307.93,167.63L308.15,166.61L308.82,166.61L309.04,165.35L310.15,165.35L310.37,164.28L310.59,164.28L310.81,162.27L323.6,162.27L323.79,161.39L330.95,161.39L331.13,160.39L356.61,159.71L356.75,158.78L360.46,158.78L360.6,157.6L363.63,157.6L363.77,156.59L365.79,156.59L365.92,155.14L372.66,155.14L372.78,154.24L388.34,154.24L388.45,153.24L396.55,153.24L396.65,152.21L404.67,152.21L404.76,150.6L406.17,150.6L406.26,149.4L407.28,149.4L407.37,148.16L410.55,148.16L410.64,147.11L418.16,147.11L418.24,145.49L428.83,145.49L428.91,144.23L430.04,144.23L430.12,142.77L439.83,142.77L439.89,141.3L444.48,141.3L444.54,139.71L460.17,139.71L460.22,138.24L472.44,138.24L472.49,136.85L476.18,136.85L476.23,135.49L483.78,135.49L483.82,134.42L485.98,134.42L486.03,133.63L488.95,133.42" style="vector-effect: non-scaling-stroke; fill: none; stroke: rgb(227, 119, 194); stroke-opacity: 1; stroke-width: 2px; opacity: 1;"/></g><g class="points"/><g class="text"/></g><g class="trace scatter tracee5aea2" style="stroke-miterlimit: 2; opacity: 1;"><g class="fills"/><g class="errorbars"/><g class="lines"><path class="js-line" d="M-12860,1874.96L-12860,1777.313545770628L-153.53,1777.11L-140.37,1680.18L-76.1,1680.18L-69.33,1556.24L-13.59,1556.24L-9.67,1408.6L-2.22,1408.6L1.32,894.54L11.33,894.54L14.48,665.49L23.42,665.49L26.25,527.25L46.62,527.25L48.92,374.65L55.56,374.65L57.68,258.44L164.58,258.44L165.38,163.78L194.26,163.78L194.87,112.28L247.14,112.28L247.53,77.5L370.37,77.5L370.5,51.21L455.3,51.21L455.36,44.81L528.32,44.81" style="vector-effect: non-scaling-stroke; fill: none; stroke: rgb(127, 127, 127); stroke-opacity: 1; stroke-width: 2px; opacity: 1;"/></g><g class="points"/><g class="text"/></g></g></g><g class="overplot"/><path class="xlines-above crisp" d="M101,720.5H745" style="fill: none; stroke-width: 1px; stroke: rgb(36, 36, 36); stroke-opacity: 1;"/><path class="ylines-above crisp" d="M101.5,100V720" style="fill: none; stroke-width: 1px; stroke: rgb(36, 36, 36); stroke-opacity: 1;"/><g class="overlines-above"/><g class="xaxislayer-above"><path class="xtick ticks crisp" d="M0,721v5" transform="translate(230.6,0)" style="stroke: rgb(68, 68, 68); stroke-opacity: 1; stroke-width: 1px;"/><path class="xtick ticks crisp" d="M0,721v5" transform="translate(487.8,0)" style="stroke: rgb(68, 68, 68); stroke-opacity: 1; stroke-width: 1px;"/><path class="xtick ticks crisp" d="M0,721v5" transform="translate(745,0)" style="stroke: rgb(68, 68, 68); stroke-opacity: 1; stroke-width: 1px;"/><g class="xtick"><text text-anchor="middle" x="0" y="750" transform="translate(230.6,0)" style="font-family: Courier; font-size: 20px; fill: rgb(36, 36, 36); fill-opacity: 1; white-space: pre; opacity: 1;">100</text></g><g class="xtick"><text text-anchor="middle" x="0" y="750" style="font-family: Courier; font-size: 20px; fill: rgb(36, 36, 36); fill-opacity: 1; white-space: pre; opacity: 1;" transform="translate(487.8,0)">1000</text></g><g class="xtick"><text text-anchor="middle" x="0" y="750" style="font-family: Courier; font-size: 20px; fill: rgb(36, 36, 36); fill-opacity: 1; white-space: pre; opacity: 1;" transform="translate(745,0)">10k</text></g></g><g class="yaxislayer-above"><path class="ytick ticks crisp" d="M101,0h-5" transform="translate(0,720)" style="stroke: rgb(68, 68, 68); stroke-opacity: 1; stroke-width: 1px;"/><path class="ytick ticks crisp" d="M101,0h-5" transform="translate(0,616.67)" style="stroke: rgb(68, 68, 68); stroke-opacity: 1; stroke-width: 1px;"/><path class="ytick ticks crisp" d="M101,0h-5" transform="translate(0,513.3299999999999)" style="stroke: rgb(68, 68, 68); stroke-opacity: 1; stroke-width: 1px;"/><path class="ytick ticks crisp" d="M101,0h-5" transform="translate(0,410)" style="stroke: rgb(68, 68, 68); stroke-opacity: 1; stroke-width: 1px;"/><path class="ytick ticks crisp" d="M101,0h-5" transform="translate(0,306.66999999999996)" style="stroke: rgb(68, 68, 68); stroke-opacity: 1; stroke-width: 1px;"/><path class="ytick ticks crisp" d="M101,0h-5" transform="translate(0,203.32999999999998)" style="stroke: rgb(68, 68, 68); stroke-opacity: 1; stroke-width: 1px;"/><path class="ytick ticks crisp" d="M101,0h-5" transform="translate(0,100)" style="stroke: rgb(68, 68, 68); stroke-opacity: 1; stroke-width: 1px;"/><g class="ytick"><text text-anchor="end" x="92" y="7" transform="translate(0,720)" style="font-family: Courier; font-size: 20px; fill: rgb(36, 36, 36); fill-opacity: 1; white-space: pre; opacity: 1;">120k</text></g><g class="ytick"><text text-anchor="end" x="92" y="7" style="font-family: Courier; font-size: 20px; fill: rgb(36, 36, 36); fill-opacity: 1; white-space: pre; opacity: 1;" transform="translate(0,616.67)">125k</text></g><g class="ytick"><text text-anchor="end" x="92" y="7" style="font-family: Courier; font-size: 20px; fill: rgb(36, 36, 36); fill-opacity: 1; white-space: pre; opacity: 1;" transform="translate(0,513.3299999999999)">130k</text></g><g class="ytick"><text text-anchor="end" x="92" y="7" style="font-family: Courier; font-size: 20px; fill: rgb(36, 36, 36); fill-opacity: 1; white-space: pre; opacity: 1;" transform="translate(0,410)">135k</text></g><g class="ytick"><text text-anchor="end" x="92" y="7" style="font-family: Courier; font-size: 20px; fill: rgb(36, 36, 36); fill-opacity: 1; white-space: pre; opacity: 1;" transform="translate(0,306.66999999999996)">140k</text></g><g class="ytick"><text text-anchor="end" x="92" y="7" style="font-family: Courier; font-size: 20px; fill: rgb(36, 36, 36); fill-opacity: 1; white-space: pre; opacity: 1;" transform="translate(0,203.32999999999998)">145k</text></g><g class="ytick"><text text-anchor="end" x="92" y="7" style="font-family: Courier; font-size: 20px; fill: rgb(36, 36, 36); fill-opacity: 1; white-space: pre; opacity: 1;" transform="translate(0,100)">150k</text></g></g><g class="overaxes-above"/></g></g><g class="polarlayer"/><g class="ternarylayer"/><g class="geolayer"/><g class="funnelarealayer"/><g class="pielayer"/><g class="iciclelayer"/><g class="treemaplayer"/><g class="sunburstlayer"/><g class="glimages"/><defs id="topdefs-64446d"><g class="clips"/><clipPath id="legend64446d"><rect width="430" height="274" x="0" y="0"/></clipPath></defs><g class="layer-above"><g class="imagelayer"/><g class="shapelayer"/></g><g class="infolayer"><g class="legend" pointer-events="all" transform="translate(757.86,100)"><rect class="bg" shape-rendering="crispEdges" style="stroke: rgb(68, 68, 68); stroke-opacity: 1; fill: rgb(255, 255, 255); fill-opacity: 1; stroke-width: 0px;" width="430" height="274" x="0" y="0"/><g class="scrollbox" transform="" clip-path="url(#legend64446d)"><text class="legendtitletext" text-anchor="start" x="2" y="31.200000000000003" style="font-family: Courier; font-size: 24px; fill: rgb(36, 36, 36); fill-opacity: 1; white-space: pre;">Software</text><g class="groups"><g class="traces" transform="translate(0,50.7)" style="opacity: 1;"><text class="legendtext" text-anchor="start" x="40" y="7.8" style="font-family: Courier; font-size: 20px; fill: rgb(36, 36, 36); fill-opacity: 1; white-space: pre;">diamond-0.9.25-res.fast</text><g class="layers" style="opacity: 1;"><g class="legendfill"/><g class="legendlines"><path class="js-line" d="M5,0h30" style="fill: none; stroke: rgb(31, 119, 180); stroke-opacity: 1; stroke-width: 2px;"/></g><g class="legendsymbols"><g class="legendpoints"/></g></g><rect class="legendtoggle" x="0" y="-14.5" width="424.0625" height="29" style="fill: rgb(0, 0, 0); fill-opacity: 0;"/></g><g class="traces" transform="translate(0,79.7)" style="opacity: 1;"><text class="legendtext" text-anchor="start" x="40" y="7.8" style="font-family: Courier; font-size: 20px; fill: rgb(36, 36, 36); fill-opacity: 1; white-space: pre;">diamond-0.9.25-res.moresensitive</text><g class="layers" style="opacity: 1;"><g class="legendfill"/><g class="legendlines"><path class="js-line" d="M5,0h30" style="fill: none; stroke: rgb(255, 127, 14); stroke-opacity: 1; stroke-width: 2px;"/></g><g class="legendsymbols"><g class="legendpoints"/></g></g><rect class="legendtoggle" x="0" y="-14.5" width="424.0625" height="29" style="fill: rgb(0, 0, 0); fill-opacity: 0;"/></g><g class="traces" transform="translate(0,108.7)" style="opacity: 1;"><text class="legendtext" text-anchor="start" x="40" y="7.8" style="font-family: Courier; font-size: 20px; fill: rgb(36, 36, 36); fill-opacity: 1; white-space: pre;">ghostz-1.0.2-res</text><g class="layers" style="opacity: 1;"><g class="legendfill"/><g class="legendlines"><path class="js-line" d="M5,0h30" style="fill: none; stroke: rgb(44, 160, 44); stroke-opacity: 1; stroke-width: 2px;"/></g><g class="legendsymbols"><g class="legendpoints"/></g></g><rect class="legendtoggle" x="0" y="-14.5" width="424.0625" height="29" style="fill: rgb(0, 0, 0); fill-opacity: 0;"/></g><g class="traces" transform="translate(0,137.7)" style="opacity: 1;"><text class="legendtext" text-anchor="start" x="40" y="7.8" style="font-family: Courier; font-size: 20px; fill: rgb(36, 36, 36); fill-opacity: 1; white-space: pre;">kaamer-0.6-res.k1-align</text><g class="layers" style="opacity: 1;"><g class="legendfill"/><g class="legendlines"><path class="js-line" d="M5,0h30" style="fill: none; stroke: rgb(214, 39, 40); stroke-opacity: 1; stroke-width: 2px;"/></g><g class="legendsymbols"><g class="legendpoints"/></g></g><rect class="legendtoggle" x="0" y="-14.5" width="424.0625" height="29" style="fill: rgb(0, 0, 0); fill-opacity: 0;"/></g><g class="traces" transform="translate(0,166.7)" style="opacity: 1;"><text class="legendtext" text-anchor="start" x="40" y="7.8" style="font-family: Courier; font-size: 20px; fill: rgb(36, 36, 36); fill-opacity: 1; white-space: pre;">kaamer-0.6-res.k1-noalign</text><g class="layers" style="opacity: 1;"><g class="legendfill"/><g class="legendlines"><path class="js-line" d="M5,0h30" style="fill: none; stroke: rgb(148, 103, 189); stroke-opacity: 1; stroke-width: 2px;"/></g><g class="legendsymbols"><g class="legendpoints"/></g></g><rect class="legendtoggle" x="0" y="-14.5" width="424.0625" height="29" style="fill: rgb(0, 0, 0); fill-opacity: 0;"/></g><g class="traces" transform="translate(0,195.7)" style="opacity: 1;"><text class="legendtext" text-anchor="start" x="40" y="7.8" style="font-family: Courier; font-size: 20px; fill: rgb(36, 36, 36); fill-opacity: 1; white-space: pre;">kaamer-0.6-res.k10-align</text><g class="layers" style="opacity: 1;"><g class="legendfill"/><g class="legendlines"><path class="js-line" d="M5,0h30" style="fill: none; stroke: rgb(140, 86, 75); stroke-opacity: 1; stroke-width: 2px;"/></g><g class="legendsymbols"><g class="legendpoints"/></g></g><rect class="legendtoggle" x="0" y="-14.5" width="424.0625" height="29" style="fill: rgb(0, 0, 0); fill-opacity: 0;"/></g><g class="traces" transform="translate(0,224.7)" style="opacity: 1;"><text class="legendtext" text-anchor="start" x="40" y="7.8" style="font-family: Courier; font-size: 20px; fill: rgb(36, 36, 36); fill-opacity: 1; white-space: pre;">kaamer-0.6-res.k10-noalign</text><g class="layers" style="opacity: 1;"><g class="legendfill"/><g class="legendlines"><path class="js-line" d="M5,0h30" style="fill: none; stroke: rgb(227, 119, 194); stroke-opacity: 1; stroke-width: 2px;"/></g><g class="legendsymbols"><g class="legendpoints"/></g></g><rect class="legendtoggle" x="0" y="-14.5" width="424.0625" height="29" style="fill: rgb(0, 0, 0); fill-opacity: 0;"/></g><g class="traces" transform="translate(0,253.7)" style="opacity: 1;"><text class="legendtext" text-anchor="start" x="40" y="7.8" style="font-family: Courier; font-size: 20px; fill: rgb(36, 36, 36); fill-opacity: 1; white-space: pre;">ncbi-blast-2.9.0-res</text><g class="layers" style="opacity: 1;"><g class="legendfill"/><g class="legendlines"><path class="js-line" d="M5,0h30" style="fill: none; stroke: rgb(127, 127, 127); stroke-opacity: 1; stroke-width: 2px;"/></g><g class="legendsymbols"><g class="legendpoints"/></g></g><rect class="legendtoggle" x="0" y="-14.5" width="424.0625" height="29" style="fill: rgb(0, 0, 0); fill-opacity: 0;"/></g></g></g><rect class="scrollbar" rx="20" ry="3" width="0" height="0" style="fill: rgb(128, 139, 164); fill-opacity: 1;" x="0" y="0"/></g><g class="g-gtitle"><text class="gtitle" x="60" y="50" text-anchor="start" dy="0em" style="font-family: Courier; font-size: 28px; fill: rgb(36, 36, 36); opacity: 1; font-weight: normal; white-space: pre;">ROC curve - ECOD benchmark</text></g><g class="g-xtitle"><text class="xtitle" x="423.5" y="787.8" text-anchor="middle" style="font-family: Courier; font-size: 24px; fill: rgb(36, 36, 36); opacity: 1; font-weight: normal; white-space: pre;">False positive</text></g><g class="g-ytitle" transform="translate(7.8154296875,0)"><text class="ytitle" transform="rotate(-90,12.184375000000003,410)" x="12.184375000000003" y="410" text-anchor="middle" style="font-family: Courier; font-size: 24px; fill: rgb(36, 36, 36); opacity: 1; font-weight: normal; white-space: pre;">True positive</text></g></g></svg>